<svg width="100" height="100" viewBox="0 0 100 100" fill="none" xmlns="http://www.w3.org/2000/svg">
  <defs>
    <linearGradient id="backgroundGradient" x1="0%" y1="0%" x2="100%" y2="100%">
      <stop offset="0%" style="stop-color:#FF6B9B;stop-opacity:1" />
      <stop offset="100%" style="stop-color:#A044FF;stop-opacity:1" />
    </linearGradient>
  </defs>

  <rect x="0" y="0" width="100" height="100" rx="22" ry="22" fill="url(#backgroundGradient)"/>

  <path d="M50.2982 72.8468C30.2241 57.5768 15.6558 46.1246 15.6558 31.7584C15.6558 21.0336 24.2323 12.4566 34.9566 12.4566C40.6353 12.4566 45.7485 15.1189 49.3323 18.991C50.0055 19.601 50.9897 19.601 51.6629 18.991C55.2467 15.1189 60.3598 12.4566 66.0385 12.4566C76.7628 12.4566 85.3393 21.0336 85.3393 31.7584C85.3393 46.1246 70.771 57.5768 50.7011 72.8468L50.2982 73.1532L49.8953 72.8468Z" fill="white"/>
  <path d="M50 73.1532L50.4029 72.8468C70.3782 57.6083 85.043 46.2238 85.043 31.8105C85.043 21.0772 76.4398 12.4566 65.6881 12.4566C60.1066 12.4566 54.7937 15.1953 51.1396 19.2618C50.6053 19.8258 49.6105 19.8258 49.0762 19.2618C45.4221 15.1953 40.1092 12.4566 34.5277 12.4566C23.776 12.4566 15.1728 21.0772 15.1728 31.8105C15.1728 46.2238 29.8376 57.6083 49.8129 72.8468L50 73.1532Z" stroke="white" stroke-width="5" stroke-linecap="round" stroke-linejoin="round"/>
  <path d="M41.6782 50.1347L30.931 50.1347C28.2166 50.1347 26.0078 47.9258 26.0078 45.2114V34.4642C26.0078 31.7499 28.2166 29.541 30.931 29.541H41.6782C44.3926 29.541 46.6015 31.7499 46.6015 34.4642V45.2114C46.6015 47.9258 44.3926 50.1347 41.6782 50.1347Z" fill="#A044FF"/>
  <path d="M58.3218 50.1347L69.069 50.1347C71.7834 50.1347 73.9922 47.9258 73.9922 45.2114V34.4642C73.9922 31.7499 71.7834 29.541 69.069 29.541H58.3218C55.6074 29.541 53.3985 31.7499 53.3985 34.4642V45.2114C53.3985 47.9258 55.6074 50.1347 58.3218 50.1347Z" fill="#FF6B9B"/>
  <path d="M46.6015 45.2114C46.6015 47.9258 44.3926 50.1347 41.6782 50.1347H30.931C28.2166 50.1347 26.0078 47.9258 26.0078 45.2114V34.4642C26.0078 31.7499 28.2166 29.541 30.931 29.541H41.6782C44.3926 29.541 46.6015 31.7499 46.6015 34.4642V45.2114Z" fill="white" stroke="white" stroke-width="2"/>
  <path d="M53.3985 45.2114C53.3985 47.9258 55.6074 50.1347 58.3218 50.1347H69.069C71.7834 50.1347 73.9922 47.9258 73.9922 45.2114V34.4642C73.9922 31.7499 71.7834 29.541 69.069 29.541H58.3218C55.6074 29.541 53.3985 31.7499 53.3985 34.4642V45.2114Z" fill="white" stroke="white" stroke-width="2"/>
</svg>
